<?xml version="1.0" encoding="UTF-8"?>
<svg width="64px" height="64px" viewBox="0 0 64 64" version="1.1" xmlns="http://www.w3.org/2000/svg" xmlns:xlink="http://www.w3.org/1999/xlink">
    <title>画板</title>
    <defs>
        <path d="M43.2258898,34.595178 C44.5030762,35.8723643 44.5271741,37.9281201 43.2981834,39.2346864 L43.2258898,39.3092232 L38.7497994,43.7841102 L34.1429774,48.3921356 C33.4921036,49.0430094 32.4368286,49.0430094 31.7859548,48.3921356 C31.1548044,47.7609853 31.1356787,46.7495715 31.7285775,46.0953749 L31.7859548,46.035113 L32.6017994,45.2191102 L32.6192881,45.2017797 L40.2796116,37.5414562 C40.5902559,37.2308119 40.6043761,36.7359311 40.3219722,36.408538 L40.2796116,36.3629449 L23.0359548,19.1192881 C22.385081,18.4684143 22.385081,17.4131393 23.0359548,16.7622655 C23.6671052,16.1311152 24.6785189,16.1119894 25.3327155,16.7048882 L25.3929774,16.7622655 L43.2258898,34.595178 Z" id="path-1"></path>
    </defs>
    <g id="画板" stroke="none" stroke-width="1" fill="none" fill-rule="evenodd">
        <circle id="椭圆形" fill="#64BB5C" cx="32" cy="32" r="32"></circle>
        <mask id="mask-2" fill="white">
            <use xlink:href="#path-1"></use>
        </mask>
        <use id="形状结合" fill="#FFFFFF" fill-rule="nonzero" transform="translate(33.375000, 32.577201) rotate(-270.000000) translate(-33.375000, -32.577201) " xlink:href="#path-1"></use>
    </g>
</svg>